<svg xmlns="http://www.w3.org/2000/svg" viewBox="0 0 42 42"><defs><style>.cls-1{fill:#fff;}</style></defs><g id="Layer_2" data-name="Layer 2"><g id="SVG"><path class="cls-1" d="M29.58,16a2.85,2.85,0,0,1,1,2.17v9.58a2.86,2.86,0,0,1-2.87,2.87H15l-1.77,1.78a5.11,5.11,0,0,0,1.11.14H27.71a4.8,4.8,0,0,0,4.79-4.79V18.13a4.77,4.77,0,0,0-1.57-3.53Z"/><path class="cls-1" d="M11.42,18.13a2.87,2.87,0,0,1,2.87-2.88h8.93l3.09-3.1-1.18-1.53A2.91,2.91,0,0,0,22.85,9.5h-3.7a2.91,2.91,0,0,0-2.28,1.12l-2.09,2.71h-.49a4.81,4.81,0,0,0-4.79,4.8v9.58a5.11,5.11,0,0,0,.14,1.11l1.78-1.77Zm7-6.34a1,1,0,0,1,.76-.37h3.7a1,1,0,0,1,.76.37l1.19,1.54H17.2Z"/><path class="cls-1" d="M24.83,22.92A3.83,3.83,0,0,1,21,26.75a3.74,3.74,0,0,1-1.76-.45l-1.41,1.41a5.74,5.74,0,0,0,8.92-4.79,5.68,5.68,0,0,0-1-3.18l-1.41,1.41A3.78,3.78,0,0,1,24.83,22.92Z"/><path class="cls-1" d="M15.25,22.92c0,.09,0,.19,0,.28l6-6H21A5.74,5.74,0,0,0,15.25,22.92Z"/><path class="cls-1" d="M21,0A21,21,0,1,0,42,21,21,21,0,0,0,21,0Zm0,2A18.88,18.88,0,0,1,33.69,6.9L6.9,33.69A19,19,0,0,1,21,2Zm0,38A18.88,18.88,0,0,1,8.31,35.1L35.1,8.31A19,19,0,0,1,21,40Z"/></g></g></svg>